<svg xmlns="http://www.w3.org/2000/svg" viewBox="0 0 142.71 44.25"><defs><style>.cls-1,.cls-2{fill:#1d1d1b;}.cls-2,.cls-3{stroke:#1d1d1b;stroke-miterlimit:10;}.cls-2{stroke-width:0.25px;}.cls-3{fill:none;stroke-width:0.05px;}</style></defs><title>Asset 15</title><g id="Layer_2" data-name="Layer 2"><g id="Layer_1-2" data-name="Layer 1"><rect class="cls-1" x="133.86" y="33.88" width="8.85" height="8.85"/><path class="cls-2" d="M.65,21H4.7V42.73h-4ZM3.52,39H25.79v3.77H3.52Z"/><path class="cls-2" d="M33.67,1.83h4v40.9h-4Zm2.79,0H60V5.6H36.46Zm0,22.47V20.53m0,18.43H53.18v3.77H36.46Z"/><path class="cls-2" d="M79.24,1.83h4.9l15.08,40.9h-4.5l-13-36.66L71.76,33.68h-4.5ZM71.11,29H92.63V32.8H71.11Z"/><path class="cls-2" d="M105.41,1.83h4V30.32h-4Zm3,21.26h13.08A8.06,8.06,0,0,0,125.66,22a7.5,7.5,0,0,0,2.83-3.07,10,10,0,0,0,1-4.56,10.18,10.18,0,0,0-1-4.6,7.4,7.4,0,0,0-2.83-3.08,8.06,8.06,0,0,0-4.22-1.09H108.36V1.83h12.88a13,13,0,0,1,6.45,1.56A10.87,10.87,0,0,1,132,7.79a13.55,13.55,0,0,1,1.54,6.58A13.39,13.39,0,0,1,132,20.91a10.84,10.84,0,0,1-4.31,4.39,13,13,0,0,1-6.45,1.56H108.36Z"/><line class="cls-3" x1="4.79" x2="4.79" y2="19.66"/><line class="cls-3" x1="0.52" y1="0.31" x2="0.52" y2="19.97"/><line class="cls-3" y1="1.68" x2="5.56" y2="1.68"/><line class="cls-3" x1="109.56" y1="29.92" x2="109.56" y2="43.94"/><line class="cls-3" x1="105.3" y1="30.23" x2="105.3" y2="44.25"/><line class="cls-3" x1="104.77" y1="42.88" x2="110.34" y2="42.88"/><line class="cls-3" x1="28.75" y1="42.84" x2="25.43" y2="42.84"/><line class="cls-3" x1="28.45" y1="38.85" x2="25.72" y2="38.85"/><line class="cls-3" x1="27.07" y1="38.05" x2="27.07" y2="43.62"/><line class="cls-3" x1="61.3" y1="5.68" x2="58.57" y2="5.68"/><line class="cls-3" x1="61.01" y1="1.68" x2="58.28" y2="1.68"/><line class="cls-3" x1="59.63" y1="0.89" x2="59.63" y2="6.45"/><line class="cls-3" x1="58.47" y1="24.44" x2="41.83" y2="24.44"/><line class="cls-3" x1="57.46" y1="20.42" x2="42.32" y2="20.42"/><line class="cls-3" x1="56.9" y1="19.71" x2="56.9" y2="25.27"/><line class="cls-3" x1="61.45" y1="42.84" x2="53.08" y2="42.84"/><line class="cls-3" x1="61.16" y1="38.85" x2="52.78" y2="38.85"/><line class="cls-3" x1="70.88" y1="42.88" x2="62.98" y2="42.88"/><line class="cls-3" x1="59.78" y1="38.05" x2="59.78" y2="43.62"/><line class="cls-3" x1="68.55" y1="43.27" x2="73.57" y2="28.93"/><line class="cls-3" x1="63.23" y1="44.08" x2="69" y2="28.7"/></g></g></svg>